<?xml version="1.0" encoding="utf-8"?>
<!-- Generator: Adobe Illustrator 26.2.1, SVG Export Plug-In . SVG Version: 6.00 Build 0)  -->
<svg version="1.1" id="_x2018_ëîé_x5F_1" xmlns="http://www.w3.org/2000/svg" xmlns:xlink="http://www.w3.org/1999/xlink"
	 x="0px" y="0px" viewBox="0 0 103 29" style="enable-background:new 0 0 103 29;" xml:space="preserve">
<style type="text/css">
	.st0{fill:#DE4E60;}
	.st1{fill:#6AA4F4;}
	.st2{fill:#FFFFFF;}
	.st3{fill:url(#SVGID_1_);}
	.st4{fill:url(#SVGID_00000068669922070403305840000009947372203857976254_);}
	.st5{fill:#3275DA;}
	.st6{fill:url(#SVGID_00000150824499126688547940000006444661194383410584_);}
	.st7{fill:#EEEEEE;}
	.st8{fill:url(#SVGID_00000137098900797714308090000015976097208557770913_);}
	.st9{fill:none;stroke:#212121;stroke-width:5;stroke-miterlimit:10;}
	.st10{fill:url(#SVGID_00000118369552796403626880000000926989059902127492_);}
	.st11{fill:#616161;}
	.st12{fill:#EAEAEA;}
	.st13{clip-path:url(#SVGID_00000174570898124657018190000000719750141895813813_);}
	.st14{clip-path:url(#SVGID_00000016071673343524748850000005532921725113993374_);}
	.st15{clip-path:url(#SVGID_00000125587623171669131600000009836005032642826378_);}
	.st16{clip-path:url(#SVGID_00000123433027485791988790000005738235928711147453_);}
	.st17{clip-path:url(#SVGID_00000065770064825177099170000008639982538044732351_);}
	.st18{clip-path:url(#SVGID_00000121276624403099718100000009448710085595420332_);}
	.st19{fill:#B0B0B0;}
	.st20{fill:#3886E3;}
	.st21{fill:#CCCCCC;}
	.st22{clip-path:url(#SVGID_00000054964277516482264840000015230948840189685666_);}
</style>
<g>
	<path d="M16.95,10.93c-0.42,0.53-0.76,1.12-1.03,1.77c-0.27,0.65-2.02,3.49-2.14,4.18c-0.13,0.7-0.26,1.36-0.4,2
		c-0.06,0.15-0.27,1.39-0.65,1.44c-0.38,0.05,0.32,0,0.15,0c-0.5,0-0.92-0.02-1.24-0.08c-0.32-0.05-0.57-0.17-0.73-0.36
		c-0.17-0.19-0.29-0.48-0.38-0.87c-0.08-0.39-0.15-2.06-0.21-2.72l0.45-9.27l3.07,0.2v5.92c0.03-0.02,0.07-0.13,0.13-0.3
		c0.2-0.46,0.43-1.02,0.71-1.69c0.28-0.67,0.59-1.31,0.92-1.92c0.34-0.61,0.69-1.13,1.07-1.56c0.38-0.43,0.76-0.65,1.15-0.65
		c0.5,0,0.89,0.11,1.15,0.32c0.27,0.22,0.47,0.49,0.61,0.82c0.14,0.33,0.22,0.68,0.25,1.06c0.03,0.38,0.04,0.75,0.04,1.1
		c0,0.25-0.03,0.67-0.08,1.26c-0.06,0.58-0.08,1.46-0.08,2.62c0,0.66,0.07,1.87,0.21,2.4c0.14,0.53,0.42,0.8,0.84,0.8
		c0.31,0,1.32-1.57,1.53-1.95c0.21-0.38,1.82-3.08,1.91-2.93c0.08,0.15,0.13,0.33,0.13,0.53v0.08c-0.03,0.51,0.35,1.04,0,1.6
		c-0.51,0.8-0.95,1.62-1.3,2.18c-0.35,0.56-2.48,3.26-3.29,3.26c-1.26,0-2.06-0.41-2.41-1.24c-0.35-0.82-0.46-3.61-0.46-5.23
		L16.95,10.93z"/>
	<path d="M32.16,13.43c0.02-1.06,0.06-2.14,0.1-3.24c0.05-1.1,0.09-2.12,0.14-3.05c0-0.17-0.18-0.28-0.55-0.34
		c-0.37-0.06-0.78-0.12-1.24-0.19c-0.46-0.06-0.87-0.16-1.24-0.3c-0.37-0.13-0.55-0.36-0.55-0.67c0-0.27,0.3-0.43,0.9-0.47
		c0.6-0.04,1.49-0.06,2.66-0.06c0.09,0,0.16-0.12,0.19-0.37c0.03-0.25,0.06-0.57,0.07-0.95c0.01-0.38,0.02-0.79,0.03-1.23
		c0.01-0.44,0.03-0.85,0.05-1.23c0.02-0.38,0.06-0.7,0.12-0.95C32.89,0.12,32.96,0,33.05,0c0.11,0,0.32,0.02,0.62,0.06
		c0.3,0.04,0.61,0.1,0.93,0.17c0.32,0.07,0.6,0.16,0.85,0.26c0.24,0.1,0.36,0.22,0.36,0.34l-0.38,4.05c0,0.12,0.12,0.21,0.36,0.26
		c0.24,0.05,0.55,0.08,0.93,0.09c0.38,0.01,0.78,0.02,1.21,0.02c0.43,0,0.83,0.03,1.21,0.09c0.38,0.06,0.69,0.16,0.93,0.3
		c0.24,0.14,0.36,0.34,0.36,0.61c0,0.04-0.02,0.11-0.07,0.2c-0.05,0.09-0.1,0.14-0.17,0.14c-0.05,0-0.11-0.03-0.19-0.09
		c-0.08-0.06-0.29-0.09-0.64-0.09c-0.09,0-0.35,0.01-0.76,0.03C38.2,6.47,37.76,6.5,37.3,6.54c-0.46,0.04-0.88,0.09-1.26,0.14
		c-0.38,0.05-0.59,0.12-0.64,0.2c-0.02,0.04-0.05,0.29-0.09,0.73c-0.03,0.45-0.07,1.03-0.1,1.76c-0.03,0.73-0.06,1.56-0.09,2.51
		c-0.02,0.95-0.03,1.94-0.03,2.98c0,0.39,0.02,0.78,0.07,1.15c0.05,0.37,0.11,0.71,0.21,1.01c0.09,0.3,0.21,0.55,0.36,0.73
		c0.15,0.19,0.33,0.28,0.54,0.28c0.3,0,0.58-0.11,0.83-0.34c0.25-0.23,0.48-0.54,0.69-0.93c0.21-0.39,0.39-0.84,0.55-1.34
		c0.16-0.5,0.3-1.01,0.41-1.53c0.07-0.31,0.15-0.53,0.24-0.67c0.09-0.13,0.23-0.2,0.41-0.2c0.16,0,0.3,0.05,0.43,0.14
		c0.13,0.09,0.19,0.31,0.19,0.64c0,0.21-0.01,0.34-0.03,0.4c-0.07,0.37-0.2,0.89-0.4,1.54c-0.2,0.65-0.46,1.3-0.79,1.93
		c-0.33,0.63-0.74,1.19-1.23,1.67c-0.48,0.48-1.05,0.72-1.69,0.72c-0.62,0-1.16-0.16-1.62-0.48c-0.46-0.32-0.85-0.77-1.16-1.34
		c-0.31-0.57-0.55-1.25-0.71-2.03c-0.16-0.78-0.24-1.61-0.24-2.51V13.43z"/>
	<path d="M61.27,19.09c0.02,0.49,0.03,1.11,0.03,1.86c0,0.75,0,1.47,0,2.16c0,0.73-0.03,1.45-0.09,2.15
		c-0.06,0.7-0.19,1.33-0.4,1.89c-0.21,0.56-0.5,1-0.88,1.34c-0.38,0.34-0.9,0.51-1.57,0.51c-0.58,0-1.18-0.02-1.81-0.07
		c-0.63-0.05-1.21-0.16-1.73-0.34c-0.52-0.18-0.94-0.45-1.28-0.81c-0.33-0.36-0.5-0.84-0.5-1.44c0-0.6,0-1.25,0.26-1.85
		c1.11-2.5,4.96-4.7,5.21-4.85l-0.02-1.38c0.05-0.38,0.08-0.77,0.1-1.15c0.02-0.38-0.63,0.65-0.9,0.84
		c-0.28,0.19-3.61,4.23-5.43-1.14c-0.16-0.46-0.41-0.92-0.5-1.49c-0.09-0.58-0.14-1.22-0.14-1.93c0-0.86,0.06-1.74,0.19-2.66
		c0.13-0.91,0.75-2.47,1.44-2.93c3.35-2.21,4.78-0.42,5.56,0.16c0.19,0.14,0.17-1.23,0.39-1.2C60.57,6.99,61.03,7,61.19,7.4
		c0.13,0.3,0.01,2.64,0.01,3c0,0.15-0.09,4.96-0.09,5.27c0,0.24,0.16,0.55,0.16,0.94C61.27,17,61.27,19.09,61.27,19.09z M55.29,9.41
		c-0.5,0.3-2.05,7.73,0.09,8.13c1.35,0.26,2.09-0.79,2.39-1.18c1.08-1.41,0.54-5.62,0.58-5.82C58.39,10.35,57.83,7.87,55.29,9.41z
		 M57.74,22.07c-0.48,0.53-3.69,3.78-2.31,5.4c0.15,0.18,0.44,0.19,0.71,0.19c0.49,0,0.89-0.16,1.2-0.48
		c0.31-0.32,0.56-0.7,0.73-1.14c0.17-0.44,0.29-0.89,0.35-1.34c0.06-0.46,0.09-0.82,0.09-1.1c0-0.05,0-0.14,0-0.25
		c0-0.11-0.03-0.32,0.02-0.63C58.68,21.72,58.22,21.54,57.74,22.07z"/>
	<path d="M74.31,14.68c0,0.15-0.06,0.49-0.17,1.04c-0.11,0.55-0.31,1.13-0.59,1.74c-0.28,0.61-0.66,1.16-1.14,1.64
		c-0.48,0.48-1.09,0.72-1.83,0.72c-0.79,0-1.41-0.23-1.88-0.7c-0.47-0.47-1.39-2.85-0.99-8.86c0.01-0.17-0.51-0.21-0.71-0.25
		c-0.2-0.04-0.38-0.06-0.55-0.06c-0.29,0-0.48,0.03-0.55,0.09c-0.07,0.06-0.12,0.14-0.15,0.22l-0.15,1c-0.1,0.67-0.2,1.3-0.31,1.92
		c-0.11,0.61-1.3,2.53-1.8,3.07c-0.5,0.54-2.28,2.38-2.36,2.34c-0.09-0.04-0.08-0.97-0.08-1.14c0-0.08,0.02-0.21,0.07-0.37
		c0.2-0.73-0.03-0.35,0.02-0.83c0.05-0.48,1.28-1.54,1.48-1.88c0.21-0.34,1.12-1.09,1.32-2.98v-0.81c0-0.23,0-0.47,0-0.72
		c0-0.25-0.02-0.52-0.07-0.81L63.77,7.2c0-0.12,0.06-0.24,0.18-0.34c0.12-0.1,0.28-0.2,0.48-0.28c0.2-0.08,0.41-0.15,0.63-0.19
		c0.22-0.04,0.42-0.06,0.59-0.06c0.42,0,0.63,0.23,0.63,0.69v0.16l-0.04,0.69v0.19c0,0.15,0.04,0.23,0.11,0.26
		c0.07,0.03,0.22,0.07,0.44,0.11h0.11c0.2,0.02,1.94,0.02,2.38,0.08c0.44,0.06,0.83,0.16,1.16,0.3c0.33,0.14,0.41,0.43,0.41,0.68
		c0,0.08-0.05,0.2-0.07,0.36c-1.16,6.68-0.09,9.21,1.15,8.22c0.46-0.37,1.11-1.17,1.33-1.68c0.22-0.51-0.34-0.8-0.21-1.31
		c0.13-0.52,0.23-0.9,0.28-1.15c0.05-0.23,0.13-0.37,0.24-0.42c0.11-0.05,0.21-0.08,0.31-0.08c0.34,0,0.52,0.19,0.52,0.56
		c0,0.04-0.01,0.15-0.02,0.33C74.36,14.46,74.34,14.59,74.31,14.68z"/>
	<path d="M86.07,16.13c-0.05,0.26,0.15,0.71-0.03,1.06c-0.18,0.35-0.04,0.98-0.33,1.3c-0.29,0.33-0.59,0.8-0.97,1.02
		c-0.38,0.22-1.15,0.49-1.61,0.49c-0.69,0-1.24-0.08-1.76-0.51c-0.31-0.25-0.69-0.89-0.98-1.52c-0.2-0.44-1.74,1.51-2.09,1.75
		c-0.36,0.23-1.21,0.37-1.69,0.37c-0.14,0-1.98,0.07-3.56-1.73c-0.34-0.39-0.4-0.94-0.5-1.47c-0.1-0.53-0.16-1.03-0.16-1.5
		c0-1.12,0.07-2.18,0.22-3.19c0.15-1.01,0.4-1.9,0.74-2.67c0.35-0.77,0.79-1.39,1.35-1.85c0.55-0.46,1.22-0.69,2-0.69
		c0.46,0,0.81,0.03,1.05,0.1c0.24,0.07,0.47,0.14,0.67,0.22c0.21,0.08,0.43,0.17,0.67,0.27c0.24,0.09,0.58,0.17,1.02,0.22
		c0.48,0.22,2.37,1.4,2.43,1.76c0.06,0.35,0.07,7.95,0.23,8.13c0.16,0.18,0.37,0.27,0.62,0.27c0.28,0,0.52-0.11,0.74-0.34
		c0.22-0.22,0.4-0.48,0.55-0.77c0.15-0.29,0.28-0.58,0.38-0.88c0.1-0.3,0.17-0.52,0.19-0.67c0.05-0.22,0.16-0.34,0.35-0.34
		c0.11,0,0.22,0.05,0.33,0.15c0.1,0.1,0.16,0.28,0.16,0.55c0,0.07,0,0.14,0,0.21C86.11,15.95,86.1,16.03,86.07,16.13z M79.61,12.84
		c0.06-0.67-0.03-1.35-0.29-1.98c-0.02-0.05-0.04-0.09-0.05-0.12c-0.12-0.24-0.29-0.45-0.52-0.62c-0.23-0.17-0.54-0.25-0.93-0.25
		c-0.64,0-1.06,0.14-1.46,0.62c-0.4,0.48-0.64,2.52-0.71,3.2c-0.07,0.68-0.1,1.12-0.1,1.51c0,0.3,0.03,0.66,0.05,1.08
		c0.12,2.89,2.35,2.41,2.71,1.99c0.36-0.42,0.51-0.77,0.7-1.39c0.18-0.62,0.34-1.36,0.42-2.08C79.46,14.38,79.55,13.5,79.61,12.84z"
		/>
	<path d="M52.6,16.13c-0.05,0.26,0.83,0.66,0.64,1.02c-0.18,0.35-0.72,1.03-1,1.35c-0.29,0.33-0.59,0.8-0.97,1.02
		c-0.38,0.22-1.15,0.49-1.61,0.49c-0.69,0-1.24-0.08-1.76-0.51c-0.31-0.25-0.69-0.89-0.98-1.52c-0.2-0.44-1.74,1.51-2.09,1.75
		c-0.36,0.23-1.21,0.37-1.69,0.37c-0.14,0-1.98,0.07-3.56-1.73c-0.34-0.39-0.4-0.94-0.5-1.47c-0.1-0.53-0.16-1.03-0.16-1.5
		c0-1.12,0.07-2.18,0.22-3.19c0.15-1.01,0.4-1.9,0.74-2.67c0.35-0.77,0.79-1.39,1.35-1.85c0.55-0.46,1.22-0.69,2-0.69
		c0.46,0,0.81,0.03,1.05,0.1c0.24,0.07,0.47,0.14,0.67,0.22c0.21,0.08,0.43,0.17,0.67,0.27c0.24,0.09,0.58,0.17,1.02,0.22
		c0.48,0.22,2.37,1.4,2.43,1.76c0.06,0.35,0.07,7.95,0.23,8.13c0.16,0.18,0.37,0.27,0.62,0.27c0.28,0,0.52-0.11,0.74-0.34
		c0.22-0.22,0.4-0.48,0.55-0.77c0.15-0.29,0.28-0.58,0.38-0.88c0.1-0.3,0.17-0.52,0.19-0.67c0.05-0.22,0.16-0.34,0.35-0.34
		c0.11,0,0.22,0.05,0.33,0.15c0.1,0.1,0.16,0.28,0.16,0.55c0,0.07,0,0.14,0,0.21C52.63,15.95,52.62,16.03,52.6,16.13z M46.13,12.84
		c0.06-0.67-0.03-1.35-0.29-1.98c-0.02-0.05-0.04-0.09-0.05-0.12c-0.12-0.24-0.29-0.45-0.52-0.62c-0.23-0.17-0.54-0.25-0.93-0.25
		c-0.64,0-1.06,0.14-1.46,0.62c-0.4,0.48-0.64,2.52-0.71,3.2c-0.07,0.68-0.1,1.12-0.1,1.51c0,0.3,0.03,0.66,0.05,1.08
		c0.12,2.89,2.35,2.41,2.71,1.99c0.36-0.42,0.51-0.77,0.7-1.39c0.18-0.62,0.34-1.36,0.42-2.08C45.99,14.38,46.07,13.5,46.13,12.84z"
		/>
	<path d="M96.39,11.4c-0.32,0.56-0.61,1.15-0.88,1.78c-0.27,0.62-0.47,1.11-0.61,1.46c-0.02,0.1-0.08,0.32-0.19,0.65
		c-0.1,0.33-0.41,3.32-0.41,3.57c0,0.1-2.05,0-2.37,0c-0.49,0-0.92-7.87-0.92-7.87c0-0.17-0.89,0.3-1.22,2.06
		c-0.1,0.52-0.3,1.26-0.44,1.97c-0.15,0.72-0.39,4.62-0.65,4.66c-0.26,0.04-0.55,0.06-0.86,0.06c-0.09,0-0.24-0.02-0.46-0.05
		c-0.21-0.03-0.43-0.07-0.64-0.11c-0.21-0.04-0.41-0.1-0.59-0.17c-0.18-0.07-0.29-0.16-0.34-0.26c-0.11-0.27-0.2-0.72-0.25-1.34
		c-0.06-0.62-0.08-1.59-0.08-2.9c0-0.77,0.02-1.66,0.05-2.68c0.03-1.02,0.07-2.21,0.12-3.58c0-0.19-0.01-0.43-0.03-0.73
		c-0.02-0.3-0.03-0.47-0.03-0.51c0-0.17,0.07-0.26,0.22-0.3c0.15-0.03,0.25-0.05,0.32-0.05c0.16,0,0.34,0.02,0.56,0.05
		c0.21,0.03,0.43,0.07,0.64,0.11c0.21,0.04,0.41,0.09,0.59,0.14c0.18,0.05,0.3,0.1,0.37,0.14v2.15c0,0.43,0.6,0.53,0.74,0.12
		c0.29-0.82,0.42-1.5,0.56-2.02c0.14-0.5,0.6-0.84,1.13-0.84c1.48-0.01,2.26,0.66,2.36,0.74c0.12,0.09,0.4,2.06,0.42,2.18
		c0,0,0.12,0.59,0.14,2.11c0.01,1.21,1.58-4.26,1.85-4.74c0.8-0.29,2.59-0.2,2.85-0.03c0.26,0.17,0.94,1.93,1.13,2.14
		c0.19,0.21,0.29,0.43,0.29,0.65c0,0.04-0.07,0.16-0.2,0.36c-0.14,0.2-0.23,0.4-0.27,0.61c-0.16,0.58-0.26,1.15-0.32,1.71
		c-0.06,0.56-0.08,1.28-0.08,2.15c0,0.37,0.02,0.75,0.05,1.12s0.09,0.71,0.17,1.01c0.08,0.3,0.19,0.55,0.32,0.73
		c0.14,0.19,0.31,0.28,0.54,0.28c0.31,0,0.6-0.1,0.84-0.3c0.25-0.2,0.46-0.46,0.64-0.79c0.18-0.33,0.34-0.72,0.47-1.17
		c0.14-0.45,1.23-0.42,1.06,0.16c-0.17,0.57-0.4,1.14-0.71,1.71c-0.3,0.57-0.68,1.07-1.13,1.5c-0.45,0.43-0.97,0.64-1.55,0.64
		c-0.69,0-1.26-0.15-1.71-0.45c-0.44-0.3-0.79-0.71-1.03-1.22c-0.24-0.51-0.42-1.1-0.52-1.76c-0.1-0.66-0.15-1.36-0.15-2.09v-0.22
		L96.39,11.4z"/>
	<path d="M24,11.89c0.25-0.52,0.14-0.63-0.12-1.15c-0.23-0.46-0.43-0.96-0.38-1.48c0.05-0.6,0.42-1.13,0.88-1.52
		c0.37-0.31,0.81-0.55,1.26-0.75c0.37-0.17,0.79-0.11,1.18-0.05c0.57,0.08,1.31,0.31,1.16,1.04c-0.12,0.6-0.33,1.23-0.68,1.71
		c-0.15,0.21-0.36,0.44-0.43,0.69c-0.1,0.35,0.01,0.46,0.13,0.57c0.8,0.73,1.33,1.13,1.99,1.66c0.37,0.29,1.58,1.31,1.71,2.25
		c0.11,0.8-0.14,1.89,0.21,1.54c0.25-0.25,0.41-0.6,0.59-0.9c0.29-0.49,0.56-0.99,0.82-1.5c0,0,0.57,1.3,0.57,1.47
		s-2.1,4.95-5.26,4.86c-0.91-0.03-1.72-0.16-2.59-0.38c-0.36-0.09-0.72-0.2-1.04-0.4c-0.32-0.2-0.58-0.5-0.67-0.86
		c-0.25-1.06,1.04-1.55,1.87-1.29c0.45,0.14,0.85,0.39,1.29,0.55c0.36,0.12,0.98,0.24,1.31-0.04c0.17-0.14,0.18-0.38,0.21-0.62
		c0.08-0.56,0.22-1.38-0.05-1.91c-0.3-0.59-1.75-2.28-2.07-2.54c-0.46-0.38-0.86,0.69-1.06,1.01c-0.34,0.53-1.12,1.87-1.54,2.33
		c-0.25-0.3-0.47-1.12-0.58-1.51C23.47,13.24,23.84,12.22,24,11.89z"/>
	<path d="M8.27,1.13c0.03-0.09,0.06-0.15,0.09-0.18c0-0.23-0.07-0.4-0.22-0.49C7.98,0.37,7.83,0.31,7.67,0.28L5.25,0.11
		C5.04,0.04,4.86,0,4.7,0C4.28,0,3.88,0.15,3.49,0.46C3.1,0.76,2.73,1.16,2.38,1.66C2.04,2.15,1.72,2.71,1.42,3.34
		c-0.3,0.62-0.55,1.26-0.76,1.91C0.45,5.89,0.29,6.51,0.17,7.11C0.06,7.71,0,8.23,0,8.68v1.24c0,0.36,1.13,1.31,2.02,1.99
		c0.26,0.2,0.61-0.05,0.51-0.36c-0.01-0.02-0.02-0.05-0.02-0.07c-0.17-0.56-0.28-1.13-0.33-1.71C2.13,9.18,2.11,8.74,2.11,8.43
		c0-0.4,0.03-0.92,0.1-1.55C2.28,6.25,2.4,5.63,2.57,5.05c0.17-0.59,0.42-1.09,0.74-1.52c0.32-0.42,0.74-0.64,1.24-0.64
		c0.39,0,0.4,1.55,0.4,2.26c0,0-0.18,13.81-0.53,16.21c-0.08,0.57,0.52,0.97,1.02,0.7c0.6-0.33,1.15-0.7,1.48-1.21
		c0.56-0.86,0.86-2.04,1.09-3.14c0.23-1.11,0.35-2.26,0.35-3.46V2.58C8.27,2.27,8.22,1.95,8.22,1.62C8.22,1.39,8.24,1.22,8.27,1.13z
		"/>
</g>
</svg>
