<?xml version="1.0" encoding="utf-8"?>
<!-- Generator: Adobe Illustrator 26.2.1, SVG Export Plug-In . SVG Version: 6.00 Build 0)  -->
<svg version="1.1" id="_x2018_ëîé_x5F_1" xmlns="http://www.w3.org/2000/svg" xmlns:xlink="http://www.w3.org/1999/xlink"
	 x="0px" y="0px" viewBox="0 0 24 24" style="enable-background:new 0 0 24 24;" xml:space="preserve">
<path d="M22.02,18.61c1.54-2.41,2.21-5.29,1.92-8.08c-0.38-3.18-2.02-6.06-4.51-7.99c-2.5-2.02-5.66-2.89-8.83-2.41
	C7.33,0.52,4.55,2.15,2.53,4.65s-2.88,5.68-2.4,8.85c0.38,3.18,2.02,6.06,4.51,7.99c2.11,1.64,4.7,2.5,7.3,2.5
	c0.48,0,0.96,0,1.54-0.1c1.25-0.19,2.4-0.48,3.55-1.06l5.38,1.06c0.1,0,0.19,0,0.38,0c0.29,0,0.58-0.19,0.77-0.38
	c0.29-0.29,0.38-0.77,0.19-1.16L22.02,18.61z M19.71,19l1.06,2.5l-3.65-0.77c-0.1,0-0.19,0-0.38,0c-0.1,0-0.29,0.1-0.38,0.1
	c-1.06,0.48-2.11,0.87-3.17,0.96c-2.59,0.29-5.09-0.39-7.2-2.02c-2.02-1.64-3.36-3.95-3.65-6.45C1.67,7.93,5.51,3.02,10.78,2.34
	c0.38-0.1,0.86-0.1,1.25-0.1c2.11,0,4.22,0.67,5.95,2.02c2.02,1.64,3.36,3.95,3.65,6.45s-0.38,5-1.82,7.03
	C19.62,18.13,19.62,18.61,19.71,19z"/>
</svg>
