<?xml version="1.0" encoding="utf-8"?>
<!-- Generator: Adobe Illustrator 26.2.1, SVG Export Plug-In . SVG Version: 6.00 Build 0)  -->
<svg version="1.1" id="Camada_1" xmlns="http://www.w3.org/2000/svg" xmlns:xlink="http://www.w3.org/1999/xlink" x="0px" y="0px"
	 viewBox="0 0 24 24" style="enable-background:new 0 0 24 24;" xml:space="preserve">
<g>
	<path d="M12,0C5.38,0,0,5.05,0,11.25c0,1.63,0.37,3.2,1.09,4.66c0.69,1.39,1.66,2.62,2.88,3.66v3.39c0,0.37,0.19,0.7,0.5,0.89
		C4.64,23.95,4.83,24,5.01,24c0.17,0,0.34-0.04,0.49-0.12l0.04-0.02l3.39-1.76c1.06,0.27,2.07,0.4,3.07,0.4c6.62,0,12-5.05,12-11.25
		C24,5.05,18.62,0,12,0z M5.7,18.25c-2.26-1.74-3.56-4.3-3.56-7.01c0-5.02,4.42-9.11,9.86-9.11s9.86,4.09,9.86,9.11
		s-4.42,9.11-9.86,9.11c-0.99,0-1.98-0.14-2.93-0.41l-0.03-0.01c-0.25-0.06-0.52-0.03-0.75,0.1l-2.18,1.13v-2.08
		C6.11,18.76,5.96,18.45,5.7,18.25z"/>
	<path d="M7.83,13.72l2.32-1.3l2.22,2.38c0.2,0.21,0.47,0.33,0.76,0.33h0c0.29,0,0.56-0.12,0.76-0.33l3.57-3.87
		c0.35-0.38,0.37-0.94,0.05-1.35c-0.32-0.41-0.87-0.52-1.32-0.26L13.9,10.6l-2.29-2.29c-0.2-0.2-0.47-0.31-0.75-0.3
		c-0.28,0-0.55,0.12-0.74,0.33L6.56,12.1c-0.36,0.38-0.39,0.94-0.06,1.35C6.82,13.86,7.37,13.97,7.83,13.72z"/>
</g>
</svg>
