<?xml version="1.0" encoding="utf-8"?>
<!-- Generator: Adobe Illustrator 26.2.1, SVG Export Plug-In . SVG Version: 6.00 Build 0)  -->
<svg version="1.1" id="_x2018_ëîé_x5F_1" xmlns="http://www.w3.org/2000/svg" xmlns:xlink="http://www.w3.org/1999/xlink"
	 x="0px" y="0px" viewBox="0 0 24 24" style="enable-background:new 0 0 24 24;" xml:space="preserve">
<path d="M23.8,0.58C23.63,0.19,23.29,0,22.87,0l0,0L1.01,0.1c-0.42,0-0.76,0.29-0.93,0.77S0,1.82,0.34,2.11l7.26,8.26
	c0,0,0,0.1,0.08,0.1l3.46,12.67c0.08,0.48,0.42,0.77,0.84,0.86h0.08c0.34,0,0.68-0.19,0.93-0.58l10.89-21.7
	C24.05,1.44,24.05,0.96,23.8,0.58z M18.73,2.4L8.78,8.35L3.54,2.4H18.73z M20.25,4.13l-7.93,15.74l-2.53-9.5L20.25,4.13z"/>
</svg>
