<?xml version="1.0" encoding="utf-8"?>
<!-- Generator: Adobe Illustrator 26.2.1, SVG Export Plug-In . SVG Version: 6.00 Build 0)  -->
<svg version="1.1" id="Camada_1" xmlns="http://www.w3.org/2000/svg" xmlns:xlink="http://www.w3.org/1999/xlink" x="0px" y="0px"
	 viewBox="0 0 24 24" style="enable-background:new 0 0 24 24;" xml:space="preserve">
<g>
	<g>
		<path d="M12,24C5.39,24,0,18.61,0,12S5.39,0,12,0s12,5.39,12,12S18.61,24,12,24z M12,2.09c-5.46,0-9.91,4.44-9.91,9.91
			s4.44,9.91,9.91,9.91l0,0c5.46,0,9.91-4.44,9.91-9.91S17.46,2.09,12,2.09z"/>
	</g>
	<g>
		<path d="M16.03,13.29L16.03,13.29c0.67,0,1.21-0.54,1.21-1.21l0,0c0-0.67-0.54-1.21-1.21-1.21l0,0c-0.67,0-1.21,0.54-1.21,1.21
			l0,0C14.82,12.75,15.37,13.29,16.03,13.29z"/>
		<path d="M7.97,13.29L7.97,13.29c0.67,0,1.21-0.54,1.21-1.21l0,0c0-0.67-0.54-1.21-1.21-1.21l0,0c-0.67,0-1.21,0.54-1.21,1.21l0,0
			C6.76,12.75,7.3,13.29,7.97,13.29z"/>
	</g>
	<g>
		<path d="M11.99,18.66c-0.05,0-0.1,0-0.14,0c-2.13-0.05-3.5-1.26-4-1.78c-0.4-0.41-0.38-1.08,0.03-1.48
			c0.41-0.4,1.08-0.38,1.48,0.03c0.25,0.26,1.15,1.09,2.54,1.13c1.53,0.04,2.54-0.94,2.74-1.13c0.4-0.42,1.07-0.43,1.48-0.03
			c0.42,0.4,0.43,1.07,0.03,1.48C15.74,17.31,14.27,18.66,11.99,18.66z"/>
	</g>
</g>
</svg>
