<?xml version="1.0" encoding="utf-8"?>
<!-- Generator: Adobe Illustrator 26.2.1, SVG Export Plug-In . SVG Version: 6.00 Build 0)  -->
<svg version="1.1" id="Camada_1" xmlns="http://www.w3.org/2000/svg" xmlns:xlink="http://www.w3.org/1999/xlink" x="0px" y="0px"
	 viewBox="0 0 24 24" style="enable-background:new 0 0 24 24;" xml:space="preserve">
<g>
	<g>
		<path d="M12.06,24h-0.12C5.36,24,0,18.64,0,12.06C0,5.36,5.36,0,11.94,0C18.64,0,24,5.36,24,11.94C24,18.64,18.64,24,12.06,24z
			 M12.06,1.98c-5.61,0-10.07,4.47-10.07,9.96c0,5.61,4.46,10.07,9.96,10.07h0.12c5.49,0,9.96-4.47,9.96-9.96
			C22.02,6.45,17.55,1.98,12.06,1.98z"/>
	</g>
	<path d="M17.32,6.65c-0.29-0.27-0.7-0.36-1.06-0.2L9.96,9C9.72,9.1,9.53,9.28,9.43,9.52l-2.97,6.72c-0.16,0.36-0.09,0.79,0.18,1.08
		c0.19,0.2,0.45,0.32,0.72,0.32c0.12,0,0.23-0.02,0.35-0.06l6.86-2.52c0.28-0.11,0.49-0.32,0.6-0.6l2.41-6.75
		C17.7,7.33,17.61,6.92,17.32,6.65z M13.45,13.34c-0.79-0.88-1.58-1.78-2.37-2.66l3.88-1.56L13.45,13.34z"/>
</g>
</svg>
