<?xml version="1.0" encoding="utf-8"?>
<!-- Generator: Adobe Illustrator 26.2.1, SVG Export Plug-In . SVG Version: 6.00 Build 0)  -->
<svg version="1.1" id="_x2018_ëîé_x5F_1" xmlns="http://www.w3.org/2000/svg" xmlns:xlink="http://www.w3.org/1999/xlink"
	 x="0px" y="0px" viewBox="0 0 26.18 24" style="enable-background:new 0 0 26.18 24;" xml:space="preserve">
<g>
	<path d="M13.1,24c-0.26,0-0.52-0.1-0.73-0.3l-9.92-9.8c-2.31-2.24-3.07-5.68-1.93-8.76C1.81,1.63,5.11,0.02,7.62,0
		c0.01,0,0.03,0,0.04,0c2.16,0,3.88,1.08,4.52,1.54c0.34,0.24,0.65,0.51,0.95,0.81c0.25-0.25,0.52-0.49,0.8-0.71
		c0.47-0.37,2.19-1.57,4.4-1.64c2.65-0.1,6.06,1.52,7.38,5.23c1.13,3.18,0.21,6.78-2.3,8.96l-9.59,9.5C13.62,23.9,13.36,24,13.1,24z
		 M7.66,2.21c-0.01,0-0.02,0-0.03,0C5.81,2.22,3.43,3.39,2.49,5.93c-0.81,2.19-0.24,4.74,1.41,6.35l9.2,9.09L22,12.54
		c1.86-1.63,2.53-4.24,1.72-6.54l0,0c-0.91-2.57-3.38-3.84-5.33-3.78c-1.63,0.05-2.95,1.01-3.2,1.2c-0.45,0.35-0.86,0.77-1.2,1.25
		c-0.2,0.28-0.51,0.44-0.84,0.44c0,0-0.01,0-0.01,0c-0.33,0-0.63-0.16-0.83-0.43c-0.38-0.51-0.83-0.96-1.33-1.32
		C10.5,3.01,9.22,2.21,7.66,2.21z"/>
</g>
</svg>
