<?xml version="1.0" encoding="utf-8"?>
<!-- Generator: Adobe Illustrator 26.2.1, SVG Export Plug-In . SVG Version: 6.00 Build 0)  -->
<svg version="1.1" id="_x2018_ëîé_x5F_1" xmlns="http://www.w3.org/2000/svg" xmlns:xlink="http://www.w3.org/1999/xlink"
	 x="0px" y="0px" viewBox="0 0 24 24" style="enable-background:new 0 0 24 24;" xml:space="preserve">
<g>
	<path d="M16.68,24H7.32C3.28,24,0,20.71,0,16.68V7.32C0,3.28,3.29,0,7.32,0h9.35C20.71,0,24,3.29,24,7.32v9.35
		C24,20.71,20.71,24,16.68,24z M7.32,1.86c-3.01,0-5.46,2.45-5.46,5.46v9.35c0,3.01,2.45,5.46,5.46,5.46h9.35
		c3.01,0,5.46-2.45,5.46-5.46V7.32c0-3.01-2.45-5.46-5.46-5.46C16.68,1.86,7.32,1.86,7.32,1.86z"/>
</g>
<path d="M18.34,11.07h-5.41V5.66c0-0.51-0.42-0.93-0.93-0.93s-0.93,0.42-0.93,0.93v5.41H5.66c-0.51,0-0.93,0.42-0.93,0.93
	c0,0.51,0.42,0.93,0.93,0.93h5.41v5.41c0,0.51,0.42,0.93,0.93,0.93c0.51,0,0.93-0.42,0.93-0.93v-5.41h5.41
	c0.51,0,0.93-0.42,0.93-0.93S18.86,11.07,18.34,11.07z"/>
</svg>
