<?xml version="1.0" encoding="utf-8"?>
<!-- Generator: Adobe Illustrator 26.2.1, SVG Export Plug-In . SVG Version: 6.00 Build 0)  -->
<svg version="1.1" id="_x2018_ëîé_x5F_1" xmlns="http://www.w3.org/2000/svg" xmlns:xlink="http://www.w3.org/1999/xlink"
	 x="0px" y="0px" viewBox="0 0 21.5 24" style="enable-background:new 0 0 21.5 24;" xml:space="preserve">
<g>
	<path d="M20.36,24c-0.28,0-0.56-0.11-0.78-0.31l-8.86-8.35l-8.81,8.35C1.59,24,1.1,24.09,0.69,23.91C0.27,23.73,0,23.32,0,22.86
		V1.14C0,0.51,0.51,0,1.14,0h19.23c0.63,0,1.14,0.51,1.14,1.14v21.72c0,0.45-0.27,0.87-0.69,1.05C20.67,23.97,20.52,24,20.36,24z
		 M10.73,12.64c0.28,0,0.56,0.1,0.78,0.31l7.72,7.28V2.28H2.27v17.94l7.67-7.27C10.17,12.74,10.45,12.64,10.73,12.64z"/>
</g>
</svg>
